<svg xmlns="http://www.w3.org/2000/svg" viewBox="0 0 2000 1203"><defs><style>.cls-1{fill:#fff;}</style></defs><title>Simple_Icons_UI_Sourse</title><g id="BG"><g id="BG-2" data-name="BG"><rect width="2000" height="1203"/></g></g><g id="Icons"><path id="Settings" class="cls-1" d="M455,203V188l-16.69-2.09a38.73,38.73,0,0,0-3.84-9.56l11.22-14.44-10.6-10.6L421,162.3a38.59,38.59,0,0,0-11.32-4.71L407.5,140.5h-15l-2.17,17.35a38.53,38.53,0,0,0-9.15,3.78l-13.27-10.32-10.6,10.6,10.09,13a38.7,38.7,0,0,0-4.68,10.89L345,188v15l17.72,2.22a38.7,38.7,0,0,0,4.68,10.89l-10.09,13,10.6,10.6,13.27-10.32a38.53,38.53,0,0,0,9.15,3.78l2.17,17.35h15l2.14-17.09A38.59,38.59,0,0,0,421,228.7l14.13,11,10.6-10.6-11.22-14.44a38.73,38.73,0,0,0,3.84-9.56Zm-38.5-7.5a16,16,0,1,1-16-16A16,16,0,0,1,416.5,195.5Z" transform="translate(0 3.5)"/><polygon id="Home" class="cls-1" points="200.04 142.08 139.19 197.08 156.74 197.08 156.74 252.08 190.68 252.08 190.68 218.15 210.57 218.15 210.57 252.08 243.34 252.08 243.34 197.08 260.89 197.08 200.04 142.08"/><polygon id="Check_mark" data-name="Check mark" class="cls-1" points="852.37 142.55 804.14 208.32 769.1 173.29 746.19 196.2 803.19 252.08 879.19 168.26 852.37 142.55"/><polygon id="Cross" class="cls-1" points="1053.22 172.34 1024.94 144.05 1000.19 171.66 975.44 144.05 947.16 172.34 974.76 197.08 947.16 221.83 975.44 250.12 1000.19 222.51 1024.94 250.12 1053.22 221.83 1025.62 197.08 1053.22 172.34"/><polygon id="Left_arrow" data-name="Left arrow" class="cls-1" points="1242.69 170.66 1215.12 143.08 1182.37 177.51 1182.35 177.5 1157.6 202.25 1208.67 252.6 1232 229.27 1207.15 203.36 1242.69 170.66"/><polygon id="Right_arrow" data-name="Right arrow" class="cls-1" points="1358.6 170.66 1386.18 143.08 1418.93 177.51 1418.94 177.5 1443.69 202.25 1392.63 252.6 1369.29 229.27 1394.14 203.36 1358.6 170.66"/><g id="_" data-name="?"><rect class="cls-1" x="1579.04" y="235.14" width="26.47" height="16.94"/><path class="cls-1" d="M1586.45,174.47c0-7.31,5.93-13.77,13.24-13.77a13.24,13.24,0,0,1,13.24,13.24V175c0,7.3-5.3,10.05-12.71,13.23-5.29,2.12-20.65,11.76-20.65,30.18h0c0,.17,0,.35,0,.53h27.54c0-.18,0-.35,0-.53,0-7.31,4.77-10.06,13.24-13.24,12.7-5.29,20.11-14.82,20.11-30.17h0v-1.06h0a33.36,33.36,0,0,0-33.35-33.36h-14.82c-18.42,0-33.35,15.47-33.35,33.89Z" transform="translate(0 3.5)"/></g><path id="Message" class="cls-1" d="M1801.19,138.58c-42,0-62.37,21.84-62.37,48.77A43,43,0,0,0,1754.35,221l-12.13,27.57,40-14.44a90.06,90.06,0,0,0,19,2c39.69,0,62.37-21.83,62.37-48.76S1835.64,138.58,1801.19,138.58Z" transform="translate(0 3.5)"/><g id="Mixer"><polygon class="cls-1" points="168.13 984.72 177.24 983.59 178.16 949.08 168.19 949.08 158.22 949.08 159.15 983.92 168.13 984.72"/><polygon class="cls-1" points="168.13 1005.45 159.28 1006.24 157.69 1049.08 168.19 1048.73 178.69 1049.08 177.11 1006.56 168.13 1005.45"/><polygon class="cls-1" points="167.67 988.99 155.06 988.01 155.06 995.34 155.06 1002.66 167.67 1001.68 180.37 1003.05 180.28 995.34 180.37 987.62 167.67 988.99"/><polygon class="cls-1" points="208.15 1016.02 195.54 1015.04 195.54 1022.37 195.54 1029.69 208.15 1028.72 220.84 1030.08 220.75 1022.37 220.84 1014.65 208.15 1016.02"/><polygon class="cls-1" points="261.32 970.08 248.62 971.45 236.01 970.47 236.01 977.8 236.01 985.12 248.62 984.14 261.32 985.51 261.23 977.8 261.32 970.08"/><polygon class="cls-1" points="208.13 1032.45 198.27 1033.33 197.69 1049.08 208.19 1048.73 218.69 1049.08 218.12 1033.69 208.13 1032.45"/><polygon class="cls-1" points="199.1 1010.91 208.13 1011.72 217.26 1010.59 216.83 998.91 218.16 949.08 208.19 949.08 198.22 949.08 199.55 998.91 199.1 1010.91"/><polygon class="cls-1" points="248.13 967.72 257.69 966.53 258.16 949.08 248.19 949.08 238.22 949.08 238.69 966.88 248.13 967.72"/><polygon class="cls-1" points="257.08 989.56 248.13 988.45 239.29 989.24 239.55 998.91 237.69 1049.08 248.19 1048.73 258.69 1049.08 256.83 998.91 257.08 989.56"/></g><polygon id="Rewind_back" data-name="Rewind back" class="cls-1" points="255 342.08 215 373.07 215 342.08 144 397.08 215 452.08 215 421.1 255 452.08 255 342.08"/><g id="Rewind_to_the_beginning" data-name="Rewind to the beginning"><polygon class="cls-1" points="374.19 399.08 445.19 454.08 445.19 344.08 374.19 399.08"/><polygon class="cls-1" points="346.19 344.08 346.19 454.08 374.19 454.08 374.19 399.08 374.19 344.08 346.19 344.08"/></g><polygon id="Rewind_one_frame" data-name="Rewind one frame" class="cls-1" points="618 452.08 618 342.08 547 397.08 618 452.08"/><polygon id="Rewind_one_frame_forward" data-name="Rewind one frame forward" class="cls-1" points="777 454.08 777 344.08 848 399.08 777 454.08"/><g id="Pause"><polygon class="cls-1" points="993.71 452.17 960.66 448.59 959.35 346.6 992.29 342.18 993.71 452.17"/><polygon class="cls-1" points="1007.71 451.99 1040.65 447.56 1039.34 345.57 1006.29 342 1007.71 451.99"/></g><rect id="Stop" class="cls-1" x="1149.97" y="344.08" width="101.44" height="110"/><g id="Rewind_to_the_end" data-name="Rewind to the end"><polygon class="cls-1" points="1421.19 397.08 1350.19 452.08 1350.19 342.08 1421.19 397.08"/><polygon class="cls-1" points="1449.19 342.08 1449.19 452.08 1421.19 452.08 1421.19 397.08 1421.19 342.08 1449.19 342.08"/></g><polygon id="Rewind_forward" data-name="Rewind forward" class="cls-1" points="1670 397.08 1599 342.08 1599 373.07 1559 342.08 1559 452.08 1599 421.1 1599 452.08 1670 397.08"/><g id="Purpose"><path class="cls-1" d="M1806.09,339.5c-30.93,0-61.09,15.27-61.09,56,0,30.93,20,56,50.91,56s61.09-15.27,61.09-56C1857,364.57,1837,339.5,1806.09,339.5Zm-7.95,87.41c-17.35,0-28.55-14.06-28.55-31.41,0-22.85,16.92-31.41,34.27-31.41s28.55,14.06,28.55,31.41C1832.41,418.35,1815.49,426.91,1798.14,426.91Z" transform="translate(0 3.5)"/><circle class="cls-1" cx="1801" cy="399" r="13"/></g><g id="Some_frame" data-name="Some frame"><polygon class="cls-1" points="1239.55 959.46 1240.86 987 1256 987 1254 945 1212 943 1212 958.14 1239.55 959.46"/><polygon class="cls-1" points="1162.45 959.46 1190 958.14 1190 943 1148 945 1146 987 1161.14 987 1162.45 959.46"/><polygon class="cls-1" points="1162.45 1036.55 1161.14 1009 1146 1009 1148 1051 1190 1053 1190 1037.86 1162.45 1036.55"/><polygon class="cls-1" points="1239.55 1036.55 1212 1037.86 1212 1053 1254 1051 1256 1009 1240.86 1009 1239.55 1036.55"/></g><polygon id="Right_Arrow_C" data-name="Right Arrow C" class="cls-1" points="1068 600.08 988 545.08 988 576.46 944 579.08 944 622.08 988 624.71 988 655.08 1068 600.08"/><polygon id="Left_Arrow_C" data-name="Left Arrow C" class="cls-1" points="1138 600.08 1218 545.08 1218 576.46 1262 579.08 1262 622.08 1218 624.71 1218 655.08 1138 600.08"/><g id="Scale"><polygon class="cls-1" points="165.26 578.33 181.22 592.48 195.93 577.77 181.78 561.82 192.17 551.42 145.98 542.87 154.53 589.06 165.26 578.33"/><polygon class="cls-1" points="250.4 646.3 241.85 600.11 231.12 610.84 215.16 596.68 200.45 611.4 214.6 627.35 204.21 637.74 250.4 646.3"/><polygon class="cls-1" points="181.38 596.84 165.42 611 155.03 600.61 146.48 646.8 192.67 638.24 181.93 627.51 196.09 611.55 181.38 596.84"/><polygon class="cls-1" points="215 592.32 230.96 578.17 241.35 588.56 249.9 542.37 203.71 550.92 214.45 561.66 200.29 577.61 215 592.32"/></g><g id="Filter"><polygon class="cls-1" points="822.14 778.35 818.88 823.95 781.97 851.08 777.63 778.35 822.14 778.35"/><polygon class="cls-1" points="750.49 742.53 848.19 742.53 799.34 818.52 750.49 742.53"/></g><g id="Up_Arrow_C" data-name="Up Arrow C"><polygon class="cls-1" points="1427.19 587 1423.19 654 1380.19 654 1376.19 587 1427.19 587"/><polygon class="cls-1" points="1456.19 610 1346.19 610 1401.19 530 1456.19 610"/></g><g id="Down_Arrow_C" data-name="Down Arrow C"><polygon class="cls-1" points="1574.19 605 1578.19 538 1621.19 538 1625.19 605 1574.19 605"/><polygon class="cls-1" points="1545.19 582 1655.19 582 1600.19 662 1545.19 582"/></g><g id="Trash_Can" data-name="Trash Can"><rect class="cls-1" x="1748.38" y="548.35" width="103.62" height="28.63"/><polygon class="cls-1" points="1821.13 534.61 1779.25 534.61 1774.84 548.35 1825.54 548.35 1821.13 534.61"/><path class="cls-1" d="M1759.4,573.48l2.21,75.58h76.06l2.2-75.58Zm23.15,61.84-13.23-4.58V587.22l13.23-4.58Zm23.15,0h-11V582.64h11Zm25.36-4.58-13.23,4.58V582.64l13.23,4.58Z" transform="translate(0 3.5)"/></g><path id="Support" class="cls-1" d="M201.19,740.5c-30.38,0-60,15-60,55,0,30.38,19.62,55,50,55s60-15,60-55C251.19,765.12,231.57,740.5,201.19,740.5Zm4,100h-18l-2-58h22Zm-20-67,2-18h18l2,18Z" transform="translate(0 3.5)"/><g id="Search"><polygon class="cls-1" points="1400.75 1010.13 1379.37 1029.62 1360.11 1051.51 1352.83 1043.94 1345.26 1036.66 1367.15 1017.4 1386.65 996.03 1393.7 1003.08 1400.75 1010.13"/><path class="cls-1" d="M1420.83,936.58c-22.1,0-43.64,10.91-43.64,40,0,22.09,14.27,40,36.36,40s43.64-10.91,43.64-40C1457.19,954.49,1442.92,936.58,1420.83,936.58ZM1415.15,999c-12.39,0-20.4-10-20.4-22.44,0-16.32,12.09-22.44,24.48-22.44s20.4,10.05,20.4,22.44C1439.63,992.9,1427.54,999,1415.15,999Z" transform="translate(0 3.5)"/></g><g id="Eye_On" data-name="Eye On"><path class="cls-1" d="M400,761.5c-33.14,0-60,31-60,32.5s26.86,32.5,60,32.5,60-30,60-32.5C460,792.5,433.14,761.5,400,761.5Zm0,59a27,27,0,1,1,27-27A27,27,0,0,1,400,820.5Z" transform="translate(0 3.5)"/><path class="cls-1" d="M395.67,773.16A27,27,0,0,0,381.61,785a1,1,0,0,0,.84,1.48H390a1,1,0,0,0,.73-.34,19,19,0,0,1,5.77-4.5,1,1,0,0,0,.54-.87v-6.72A1,1,0,0,0,395.67,773.16Z" transform="translate(0 3.5)"/></g><path id="Eye_Off" data-name="Eye Off" class="cls-1" d="M600.19,761.58c-33.14,0-60,31-60,32.5s26.86,32.5,60,32.5,60-30,60-32.5C660.19,792.58,633.33,761.58,600.19,761.58Zm26,45.14-13.87,13.86-12.13-13.53-12.13,13.53-13.87-13.86,13.53-12.14-13.53-12.13,13.87-13.87,12.13,13.54,12.13-13.54,13.87,13.87-13.53,12.13Z" transform="translate(0 3.5)"/><path id="Music_On" data-name="Music On" class="cls-1" d="M966.19,757.58l.83,30,.63,23.07h0a14.32,14.32,0,0,0-1.47-.08,15.51,15.51,0,1,0,16,15.5c0-.17,0-.35,0-.52l0,0v-48l39-5,.44,15,.44,15,.12.14a16.52,16.52,0,0,0-2-.14,15.51,15.51,0,1,0,16,16l0,0,.45-31,.55-38Z" transform="translate(0 3.5)"/><g id="Music_Off" data-name="Music Off"><polygon class="cls-1" points="1260.92 780.32 1202.88 802.66 1145.36 827.45 1142.74 819.79 1139.31 812.47 1197.9 790.34 1255.17 766.09 1258.05 773.21 1260.92 780.32"/><polygon class="cls-1" points="1173.21 796.18 1188.19 790.66 1188.19 779.08 1227.19 774.08 1227.2 774.4 1242.95 767.62 1243.19 751.08 1172.19 759.08 1173.02 789.08 1173.21 796.18"/><path class="cls-1" d="M1188.19,809l-32,14.08c0,.34,0,.68,0,1a16,16,0,0,0,32,0c0-.17,0-.35,0-.52l0,0Z" transform="translate(0 3.5)"/><path class="cls-1" d="M1227.85,793l.22,7.59.12.14a16.52,16.52,0,0,0-2-.14,15.51,15.51,0,1,0,16,16l0,0,.42-29.18Z" transform="translate(0 3.5)"/></g><g id="Sound_On" data-name="Sound On"><path class="cls-1" d="M1605,757.5l-25.31,23H1560c-1.66,0-3,8.06-3,18s1.34,18,3,18h19.69l25.31,23Z" transform="translate(0 3.5)"/><path class="cls-1" d="M1621.55,797.57a51.67,51.67,0,0,1-6.44,25l10.52,6.26a51.91,51.91,0,0,0,1.15-61l-10.76,6.4A51.69,51.69,0,0,1,1621.55,797.57Z" transform="translate(0 3.5)"/><path class="cls-1" d="M1648.33,799.39a57.12,57.12,0,0,1-11.14,34l9.63,5.73a59.2,59.2,0,0,0,1.39-81.6l-11.73,7A57.14,57.14,0,0,1,1648.33,799.39Z" transform="translate(0 3.5)"/></g><g id="Sound_Off" data-name="Sound Off"><path class="cls-1" d="M1804,755.5l-25.31,23H1759c-1.66,0-3,8.06-3,18s1.34,18,3,18h19.69l25.31,23Z" transform="translate(0 3.5)"/><polygon id="Крестик" class="cls-1" points="1855 790.2 1843.8 779 1834 789.93 1824.2 779 1813 790.2 1823.93 800 1813 809.8 1824.2 821 1834 810.07 1843.8 821 1855 809.8 1844.07 800 1855 790.2"/></g><path id="Return" class="cls-1" d="M803.19,937.58A50,50,0,0,0,755,1000.75l-13.62,8.48,42.8,18.69,2.13-46.66-13,8.12c0-.6,0-1.19,0-1.8a30,30,0,1,1,60,0c0,9.33-2.32,19.5-9,25l11,11c10.28-9.15,18-21.15,18-36A50,50,0,0,0,803.19,937.58Z" transform="translate(0 3.5)"/><path id="Gamepad" class="cls-1" d="M1628.19,966.58h-58a28,28,0,1,0,21.44,46h15.12a28,28,0,1,0,21.44-46Zm-38.54,30.22a3.75,3.75,0,0,1-3.76,3.75h-9.27v9.28a3.75,3.75,0,0,1-3.76,3.75h-4.43a3.75,3.75,0,0,1-3.75-3.75v-9.28h-9.28a3.75,3.75,0,0,1-3.75-3.75v-4.43a3.75,3.75,0,0,1,3.75-3.76h9.28v-9.27a3.76,3.76,0,0,1,3.75-3.76h4.43a3.76,3.76,0,0,1,3.76,3.76v9.27h9.27a3.76,3.76,0,0,1,3.76,3.76Zm25.77,3.6A5.91,5.91,0,0,1,1611,996a6,6,0,1,1,4.45,4.45Zm12.49,12.49a5.91,5.91,0,0,1-4.45-4.45,6,6,0,1,1,4.45,4.45Zm0-25a5.91,5.91,0,0,1-4.45-4.46,6,6,0,1,1,4.45,4.46Zm12.48,12.48a5.91,5.91,0,0,1-4.45-4.45,6,6,0,1,1,4.45,4.45Z" transform="translate(0 3.5)"/><g id="Turn_Off" data-name="Turn Off"><path class="cls-1" d="M615.07,147.53,615,149l1.54,24.07c8.06,5,12.82,14.5,12.82,25.39,0,21.22-15.71,29.17-31.82,29.17S571,214.61,571,198.5c0-12.25,5.24-20.07,12.76-24.5l1.6-25v-.12c-20.66,5.45-37.18,20.54-37.18,49.58,0,28.72,18.55,52,47.27,52s56.73-14.18,56.73-52C652.19,173.33,637.93,152.33,615.07,147.53Z" transform="translate(0 3.5)"/><polygon class="cls-1" points="610.21 140 608.87 169.04 610.74 198.29 600.19 198.08 589.64 198.29 591.51 169.04 590.17 140 600.19 140 610.21 140"/></g><g id="List"><rect class="cls-1" x="551" y="953" width="95" height="25"/><rect class="cls-1" x="551" y="983" width="95" height="25"/><rect class="cls-1" x="551" y="1014" width="95" height="25"/></g><g id="Bullet_List" data-name="Bullet List"><rect class="cls-1" x="350" y="952" width="22" height="25"/><rect class="cls-1" x="379" y="952" width="66" height="25"/><rect class="cls-1" x="350" y="983" width="22" height="25"/><rect class="cls-1" x="379" y="983" width="66" height="25"/><rect class="cls-1" x="350" y="1014" width="22" height="25"/><rect class="cls-1" x="379" y="1014" width="66" height="25"/></g><polygon id="Leader_Board" data-name="Leader Board" class="cls-1" points="1019 993 1019 947 977 947 977 977 944 977 944 1026 977 1026 980 1026 1015 1026 1019 1026 1051 1026 1051 993 1019 993"/><path id="Wetch" class="cls-1" d="M815.94,576.74l-4.47-22.33L831.86,534a36.65,36.65,0,0,0-44.35,44.35L740,625.88l.06.06c-1.89,3.12,1.88,10.82,8.87,17.81s14.68,10.76,17.8,8.87l.07.06,47.5-47.51a36.64,36.64,0,0,0,44.35-44.35l-20.38,20.39Z" transform="translate(0 3.5)"/><g id="Awards"><circle class="cls-1" cx="1399.19" cy="822" r="30"/><polygon class="cls-1" points="1416.19 764 1426.19 742 1372.19 742 1382.19 764 1416.19 764"/><path class="cls-1" d="M1388.1,785.3l-19.91-44.8-18.26,22.91,20.31,35.43A35,35,0,0,1,1388.1,785.3Z" transform="translate(0 3.5)"/><path class="cls-1" d="M1428.8,798.84l20.3-35.43-18.26-22.91-19.91,44.8A35.07,35.07,0,0,1,1428.8,798.84Z" transform="translate(0 3.5)"/></g><path id="Heart" class="cls-1" d="M647.26,600.5l0,0-47,47-47-47,0,0a33.26,33.26,0,1,1,47-47l0,0,.05,0a33.26,33.26,0,0,1,47,47Z" transform="translate(0 3.5)"/><g id="Heart_Outline" data-name="Heart Outline"><path class="cls-1" d="M423.7,553.66a23.89,23.89,0,0,1,16.89,40.79l0,0-40.86,40.86L358.83,594.5l-.05-.06a23.89,23.89,0,1,1,33.79-33.78l.05.05,7.07,7.06,7.07-7.06.05-.06a23.73,23.73,0,0,1,16.89-7m0-10a33.76,33.76,0,0,0-24,9.93l-.05,0-.05,0a33.89,33.89,0,0,0-47.93,47.93l.05.05,47.93,47.93,47.93-47.93.05-.05a33.9,33.9,0,0,0-24-57.86Z" transform="translate(0 3.5)"/></g></g></svg>